/* XPM */
static char *_4240_b4a19a6b0e04c9733e7efd2a3f5212e026101d68a2b9be42116141aad42a4aeb[] = {
/* columns rows colors chars-per-pixel */
"128 128 65 1 ",
"  c #000000",
". c #090702",
"X c #0C0903",
"o c #120E04",
"O c #161105",
"+ c #1A1506",
"@ c #1E1807",
"# c #221A07",
"$ c #251D08",
"% c #281F09",
"& c #2B2209",
"* c #31270B",
"= c #352A0C",
"- c #3A2E0D",
"; c #3E310E",
": c #43350F",
"> c #453710",
", c #473810",
"< c #4B3B11",
"1 c #554413",
"2 c #594614",
"3 c #5E4B15",
"4 c #614D16",
"5 c #665117",
"6 c #665418",
"7 c #6C5618",
"8 c #6E5919",
"9 c #735C1A",
"0 c #785E1B",
"q c #76601B",
"w c #7C651C",
"e c #80671D",
"r c #856B1E",
"t c #896F1F",
"y c #8A6F20",
"u c #8E7320",
"i c #927621",
"p c #967A22",
"a c #9B7C23",
"s c #9F8225",
"d c #A58525",
"f c #AB8A27",
"g c #AF8D28",
"h c #B38F28",
"j c #B59129",
"k c #BA952A",
"l c #C49D2C",
"z c #CCA32E",
"x c #D1A62F",
"c c #D3A82F",
"v c #D5A930",
"b c #DBAE31",
"n c #DCB032",
"m c #E2B533",
"M c #E5BA34",
"N c #EBBB35",
"B c #F2BF36",
"V c #EEC136",
"C c #F4C337",
"Z c #F8C537",
"A c #FAC738",
"S c #FFCA39",
"D c #FFD33C",
"F c #FFDA3E",
"G c None",
/* pixels */
"GGGGGGGGGGGGGGGGGGGGGGGGGGGGGGGGGGGGGGGGGGGGGGGGGGGGGGGGSSSSSSSSSSSSSSSSGGGGGGGGGGGGGGGGGGGGGGGGGGGGGGGGGGGGGGGGGGGGGGGGGGGGGGGG",
"GGGGGGGGGGGGGGGGGGGGGGGGGGGGGGGGGGGGGGGGGGGGGGGGGGSSSSSSSSSSSSSSSSSSSSSSSSSSSSGGGGGGGGGGGGGGGGGGGGGGGGGGGGGGGGGGGGGGGGGGGGGGGGGG",
"GGGGGGGGGGGGGGGGGGGGGGGGGGGGGGGGGGGGGGGGGGGGGGSSSSSSSSSSSSSSSSSSSSSSSSSSSSSSSSSSSSGGGGGGGGGGGGGGGGGGGGGGGGGGGGGGGGGGGGGGGGGGGGGG",
"GGGGGGGGGGGGGGGGGGGGGGGGGGGGGGGGGGGGGGGGGGGSSSSSSSSSSSSSSSSSSSSSSSSSSSSSSSSSSSSSSSSSSGGGGGGGGGGGGGGGGGGGGGGGGGGGGGGGGGGGGGGGGGGG",
"GGGGGGGGGGGGGGGGGGGGGGGGGGGGGGGGGGGGGGGGSSSSSSSSSSSSSSSSSSSSSSSSSSSSSSSSSSSSSSSSSSSSSSSSGGGGGGGGGGGGGGGGGGGGGGGGGGGGGGGGGGGGGGGG",
"GGGGGGGGGGGGGGGGGGGGGGGGGGGGGGGGGGGGGGSSSSSSSSSSSSSSSSSSSSSSSSSSSSSSSSSSSSSSSSSSSSSSSSSSSSGGGGGGGGGGGGGGGGGGGGGGGGGGGGGGGGGGGGGG",
"GGGGGGGGGGGGGGGGGGGGGGGGGGGGGGGGGGGGSSSSSSSSSSSSSSSSSSSSSSSSSSSSSSSSSSSSSSSSSSSSSSSSSSSSSSSSGGGGGGGGGGGGGGGGGGGGGGGGGGGGGGGGGGGG",
"GGGGGGGGGGGGGGGGGGGGGGGGGGGGGGGGGGSSSSSSSSSSSSSSSSSSSSSSSSSSSSSSSSSSSSSSSSSSSSSSSSSSSSSSSSSSSSGGGGGGGGGGGGGGGGGGGGGGGGGGGGGGGGGG",
"GGGGGGGGGGGGGGGGGGGGGGGGGGGGGGGGSSSSSSSSSSSSSSSSSSSSSSSSSSSSSSSSSSSSSSSSSSSSSSSSSSSSSSSSSSSSSSSSGGGGGGGGGGGGGGGGGGGGGGGGGGGGGGGG",
"GGGGGGGGGGGGGGGGGGGGGGGGGGGGGGSSSSSSSSSSSSSSSSSSSSSSSSSSSSSSSSSSSSSSSSSSSSSSSSSSSSSSSSSSSSSSSSSSSSGGGGGGGGGGGGGGGGGGGGGGGGGGGGGG",
"GGGGGGGGGGGGGGGGGGGGGGGGGGGGGSSSSSSSSSSSSSSSSSSSSSSSSSSSSSSSSSSSSSSSSSSSSSSSSSSSSSSSSSSSSSSSSSSSSSSGGGGGGGGGGGGGGGGGGGGGGGGGGGGG",
"GGGGGGGGGGGGGGGGGGGGGGGGGGGSSSSSSSSSSSSSSSSSSSSSSSSSSSSSSSDFFDSAASFDFDDSSSSSSSSSSSSSSSSSSSSSSSSSSSSSSGGGGGGGGGGGGGGGGGGGGGGGGGGG",
"GGGGGGGGGGGGGGGGGGGGGGGGGGSSSSSSSSSSSSSSSSSSSSSSSSSSDDzp9<%.        .%<9pzDDSSSSSSSSSSSSSSSSSSSSSSSSSSGGGGGGGGGGGGGGGGGGGGGGGGGG",
"GGGGGGGGGGGGGGGGGGGGGGGGGSSSSSSSSSSSSSSSSSSSSSSSDSf7@                      #7gDSSSSSSSSSSSSSSSSSSSSSSSSGGGGGGGGGGGGGGGGGGGGGGGGG",
"GGGGGGGGGGGGGGGGGGGGGGGSSSSSSSSSSSSSSSSSSSSSSDAi-                              -iSDSSSSSSSSSSSSSSSSSSSSSSGGGGGGGGGGGGGGGGGGGGGGG",
"GGGGGGGGGGGGGGGGGGGGGGSSSSSSSSSSSSSSSSSSSSSDf>                                    >gDSSSSSSSSSSSSSSSSSSSSSGGGGGGGGGGGGGGGGGGGGGG",
"GGGGGGGGGGGGGGGGGGGGGSSSSSSSSSSSSSSSSSSSSDy.                                        .uDSSSSSSSSSSSSSSSSSSSSGGGGGGGGGGGGGGGGGGGGG",
"GGGGGGGGGGGGGGGGGGGGSSSSSSSSSSSSSSSSSSSDw                                              wDSSSSSSSSSSSSSSSSSSSGGGGGGGGGGGGGGGGGGGG",
"GGGGGGGGGGGGGGGGGGGSSSSSSSSSSSSSSSSSSDi                                                  pDSSSSSSSSSSSSSSSSSSGGGGGGGGGGGGGGGGGGG",
"GGGGGGGGGGGGGGGGGGSSSSSSSSSSSSSSSSSDlO                                                    OxDSSSSSSSSSSSSSSSSSGGGGGGGGGGGGGGGGGG",
"GGGGGGGGGGGGGGGGGSSSSSSSSSSSSSSSSSS2                                                        2DASSSSSSSSSSSSSSSSGGGGGGGGGGGGGGGGG",
"GGGGGGGGGGGGGGGGSSSSSSSSSSSSSSSSDx.                                                          XvSSSSSSSSSSSSSSSSSGGGGGGGGGGGGGGGG",
"GGGGGGGGGGGGGGGSSSSSSSSSSSSSSSSDw                                                              yFSSSSSSSSSSSSSSSSGGGGGGGGGGGGGGG",
"GGGGGGGGGGGGGGSSSSSSSSSSSSSSSSS=                                                                ;SSSSSSSSSSSSSSSSSGGGGGGGGGGGGGG",
"GGGGGGGGGGGGGGSSSSSSSSSSSSSSSVO                                                                  +VSSSSSSSSSSSSSSSGGGGGGGGGGGGGG",
"GGGGGGGGGGGGGSSSSSSSSSSSSSSSn.                                                                    .mSSSSSSSSSSSSSSSGGGGGGGGGGGGG",
"GGGGGGGGGGGGSSSSSSSSSSSSSSSN&&&&&&&&*&*&*&*&&&%*&&&&*&&&&&&&&&&&&&&&&&&&&&&&*&&&&*&&%&*&&&*&&&&*&&&+bSSSSSSSSSSSSSSSGGGGGGGGGGGG",
"GGGGGGGGGGGSSSSSSSSSSSSSSSSSDDDDDDDDDDDDDDDDDDDDDDDDDDDDDDDDDDDDDDDDDDDDDDDDDDDDDDDDDDDDDDDDDDDDDDF< bSSSSSSSSSSSSSSSGGGGGGGGGGG",
"GGGGGGGGGGGSSSSSSSSSSSSSSSSSSSSSSSSSSSSSSSSSSSSSSSSSSSSSSSSSSSSSSSSSSSSSSSSSSSSSSSSSSSSSSSSSSSSSSSN   MSSSSSSSSSSSSSSGGGGGGGGGGG",
"GGGGGGGGGGSSSSSSSSSSSSSSSSSSSSSSSSSSSSSSSSSSSSSSSSSSSSSSSSSSSSSSSSSSSSSSSSSSSSSSSSSSSSSSSSSSSSSSSS3   .VSSSSSSSSSSSSSSGGGGGGGGGG",
"GGGGGGGGGSSSSSSSSSSSSSSSSSSSSSSSSSSSSSSSSSSSSSSSSSSSSSSSSSSSSSSSSSSSSSSSSSSSSSSSSSSSSSSSSSSSSSSSSS     +SSSSSSSSSSSSSSSGGGGGGGGG",
"GGGGGGGGGSSSSSSSSSSSSSSSSSSSSSSSSSSSSSSSSSSSSSSSSSSSSSSSSSSSSSSSSSSSSSSSSSSSSSSSSSSSSSSSSSSSSSSSSw      ;DSSSSSSSSSSSSSGGGGGGGGG",
"GGGGGGGGSSSSSSSSSSSSSSSSSSSSSSSSSSSSSSSSSSSSSSSSSSSSSSSSSSSSSSSSSSSSSSSSSSSSSSSSSSSSSSSSSSSSSSSSD        ySSSSSSSSSSSSSSGGGGGGGG",
"GGGGGGGGSSSSSSSSSSSSSSSSSSSSSSSSSSSSSSSSSSSSSSSSSSSSSSSSSSSSSSSSSSSSSSSSSSSSSSSSSSSSSSSSSSSSSSSSs         vSSSSSSSSSSSSSGGGGGGGG",
"GGGGGGGSSSSSSSSSSSSSSSSSSSSSSSSSSSSSSSSSSSSSSSSSSSSSSSSSSSSSSSSSSSSSSSSSSSSSSSSSSSSSSSSSSSSSSSSFO         XDSSSSSSSSSSSSSGGGGGGG",
"GGGGGGGSSSSSSSSSSSSSSSSSSSSSSSSSSSSSSSSSSSSSSSSSSSSSSSSSSSSSSSSSSSSSSSSSSSSSSSSSSSSSSSSSSSSSSSSk           3SSSSSSSSSSSSSGGGGGGG",
"GGGGGGSSSSSSSSSSSSSDFFFFFFFFFFFFFFFFFFFFFFFFFFFFFFFFFFFFFFFFFFFFFFFFFFFFFFFFFFFFFDSSSSSSSSSSSSD;            zSSSSSSSSSSSSSGGGGGG",
"GGGGGGSSSSSSSSSSSSFX.                .  .                    .     .             fSSSSSSSSSSSSn             OFSSSSSSSSSSSSGGGGGG",
"GGGGGSSSSSSSSSSSSSu                                                             ODSSSSSSSSSSSS3              pSSSSSSSSSSSSSGGGGG",
"GGGGGSSSSSSSSSSSSS                                                              sSSSSSSSSSSSSA                SSSSSSSSSSSSSGGGGG",
"GGGGSSSSSSSSSSSSSq                                                             .DSSSSSSSSSSSSq                ySSSSSSSSSSSSSGGGG",
"GGGGSSSSSSSSSSSSS                                                              eSSSSSSSSSSSSD                  DSSSSSSSSSSSSGGGG",
"GGGGSSSSSSSSSSSSr                                                              SSSSSSSSSSSSSp                  uSSSSSSSSSSSSGGGG",
"GGGSSSSSSSSSSSSD.                                                             4SSSSSSSSSSSSFo                  XDSSSSSSSSSSSSGGG",
"GGGSSSSSSSSSSSSf                                                              MSSSSSSSSSSSSj                    jSSSSSSSSSSSSGGG",
"GGGSSSSSSSSSSSD-                                                             >SSSSSSSSSSSSD*                    ,DSSSSSSSSSSSGGG",
"GGSSSSSSSSSSSSZ                                                              lSSSSSSSSSSSSv                      SSSSSSSSSSSSSGG",
"GGSSSSSSSSSSSSu                                                             @FSSSSSSSSSSSS1                      iSSSSSSSSSSSSGG",
"GGSSSSSSSSSSSD=                                                             dSSSSSSSSSSSSZ                       ;DSSSSSSSSSSSGG",
"GGSSSSSSSSSSSS                                     6jjjjjhjjjjjhj          .DSSSSSSSSSSSS9                        DSSSSSSSSSSSGG",
"GSSSSSSSSSSSSd                                     SSSSSSSSSSSSSu          ySSSSSSSSSSSSD                         hSSSSSSSSSSSSG",
"GSSSSSSSSSSSS6                                    5SSSSSSSSSSSSF.          SSSSSSSSSSSSSi                         7SSSSSSSSSSSSG",
"GSSSSSSSSSSSDO                                    NSSSSSSSSSSSSd          5SSSSSSSSSSSSFX                         $DSSSSSSSSSSSG",
"GSSSSSSSSSSSD                                    <DSSSSSSSSSSSD$          NSSSSSSSFNmSSf                           DSSSSSSSSSSSG",
"GSSSSSSSSSSSl                                    zSSSSSSSSSSSSz          <DSSDDlt<  ASF&                           xSSSSSSSSSSSG",
"GSSSSSSSSSSSi                                   &DSSSSSSSSSSSD<          nms7%     2SSz                            pSSSSSSSSSSSG",
"SSSSSSSSSSSS9                                   dSSSSSSSSSSSSN                     xSD<                            0SSSSSSSSSSSS",
"SSSSSSSSSSSS>                                  .FSSSSSSSSSSSS5                    #DSB                             <DSSSSSSSSSSS",
"SSSSSSSSSSSD#                                  uSSSSSSSSSSSFS                     fSS7                             &DSSSSSSSSSSS",
"SSSSSSSSSSSF                                   DSSSSSSDFci2X                 O3pbFSSD                              XDSSSSSSSSSSS",
"SSSSSSSSSSSF                                  8SSSFBf9*                  :wkSDDDDNSSt                               FSSSSSSSSSSS",
"SSSSSSSSSSSD                                  CSn<.                   1MFSDFNd7& NSF.                               DSSSSSSSSSSS",
"SSSSSSSSSSSA                                 1SS1                     SDlr<     >DSd                                SSSSSSSSSSSS",
"SSSSSSSSSSSC                                 vSC                     X$         jSD#                                SSSSSSSSSSSS",
"SSSSSSSSSSSC                                *DS8      .1uv<                    XFSl                                 SSSSSSSSSSSS",
"SSSSSSSSSSSA                                gSD.  =0gCFSSV                     uSD>                                 DSSSSSSSSSSS",
"SSSSSSSSSSSD                               XFAluvFDSDAjq=                  -qjSDSN                                  DSSSSSSSSSSS",
"SSSSSSSSSSSF                               pSSSDDxu2X                 @5pnFDSSSSS6                                  FSSSSSSSSSSS",
"SSSSSSSSSSSF                               DSN8&                   1kDDSSSSSSSSSS                                  XFSSSSSSSSSSS",
"SSSSSSSSSSSD#                             qSS6                     DSSSSSSSSSSSSr                                  &DSSSSSSSSSSS",
"SSSSSSSSSSSS>                             ZSS                     8SSSSSSSSSSSSD                                   <SSSSSSSSSSSS",
"SSSSSSSSSSSS9                            2SSt       &9jo          ZSSSSSSSSSSSSa                                   0SSSSSSSSSSSS",
"GSSSSSSSSSSSp                            nSF.  X1uxDDSk          1SSSSSSSSSSSSF+                                   pSSSSSSSSSSSG",
"GSSSSSSSSSSSl                           -DSl8gAFDSSSSD;          cSSSSSSSSSSSSl                                    xSSSSSSSSSSSG",
"GSSSSSSSSSSSD                           kSSSSSSSSSSSSm          *DSSSSSSSSSSSD;                                    DSSSSSSSSSSSG",
"GSSSSSSSSSSSD+                         OFSSSSSSSSSSSS3          gSSSSSSSSSSSSm                                    %DSSSSSSSSSSSG",
"GSSSSSSSSSSSS5                         aSSSSSSSSSSSSA          oFSSSSSSSSSSSS3                                    8SSSSSSSSSSSSG",
"GSSSSSSSSSSSSd                         DSSSSSSSSSSSSq          iSSSSSSSSSSSSA                                     jSSSSSSSSSSSSG",
"GGSSSSSSSSSSSS                        wSSSSSSSSSSSSD           khhhhhhhhhhjj3                                     DSSSSSSSSSSSGG",
"GGSSSSSSSSSSSD=                       SSSSSSSSSSSSSa                                                             ;DSSSSSSSSSSSGG",
"GGSSSSSSSSSSSSi                      3SSSSSSSSSSSSFo                                                             pSSSSSSSSSSSSGG",
"GGSSSSSSSSSSSSZ                      mSSSSSSSSSSSSj                                                              SSSSSSSSSSSSSGG",
"GGGSSSSSSSSSSSD-                    ;DSSSSSSSSSSSD=                                                             ,SSSSSSSSSSSSGGG",
"GGGSSSSSSSSSSSSf                    lSSSSSSSSSSSSn                                                              jSSSSSSSSSSSSGGG",
"GGGSSSSSSSSSSSSD.                  +FSSSSSSSSSSSS2                                                             XFSSSSSSSSSSSSGGG",
"GGGGSSSSSSSSSSSSt                  sSSSSSSSSSSSSA                                                              uSSSSSSSSSSSSGGGG",
"GGGGSSSSSSSSSSSSD                  DSSSSSSSSSSSSq                                                              DSSSSSSSSSSSSGGGG",
"GGGGSSSSSSSSSSSSSq                rSSSSSSSSSSSSD                                                              eSSSSSSSSSSSSSGGGG",
"GGGGGSSSSSSSSSSSSD                SSSSSSSSSSSSSi                                                              DSSSSSSSSSSSSGGGGG",
"GGGGGSSSSSSSSSSSSSi              5SSSSSSSSSSSSFX                                                             aSSSSSSSSSSSSSGGGGG",
"GGGGGGSSSSSSSSSSSSDo             NSSSSSSSSSSSSd        .                    .               .               OFSSSSSSSSSSSSGGGGGG",
"GGGGGGSSSSSSSSSSSSSz            :DSSSSSSSSSSSSDFFFFFFFFFFFFFFFFFFFFFFFFFFFFFFFFFFFFFFFFFFFFFFFFFFFFFFFFFFFFFDSSSSSSSSSSSSSGGGGGG",
"GGGGGGGSSSSSSSSSSSSS1           lSSSSSSSSSSSSSSSSSSSSSSSSSSSSSSSSSSSSSSSSSSSSSSSSSSSSSSSSSSSSSSSSSSSSSSSSSSSSSSSSSSSSSSSSGGGGGGG",
"GGGGGGGSSSSSSSSSSSSSS.         #FSSSSSSSSSSSSSSSSSSSSSSSSSSSSSSSSSSSSSSSSSSSSSSSSSSSSSSSSSSSSSSSSSSSSSSSSSSSSSSSSSSSSSSSSGGGGGGG",
"GGGGGGGGSSSSSSSSSSSSSz         dSSSSSSSSSSSSSSSSSSSSSSSSSSSSSSSSSSSSSSSSSSSSSSSSSSSSSSSSSSSSSSSSSSSSSSSSSSSSSSSSSSSSSSSSGGGGGGGG",
"GGGGGGGGSSSSSSSSSSSSSDw       .DSSSSSSSSSSSSSSSSSSSSSSSSSSSSSSSSSSSSSSSSSSSSSSSSSSSSSSSSSSSSSSSSSSSSSSSSSSSSSSSSSSSSSSSSGGGGGGGG",
"GGGGGGGGGSSSSSSSSSSSSSD=      rSSSSSSSSSSSSSSSSSSSSSSSSSSSSSSSSSSSSSSSSSSSSSSSSSSSSSSSSSSSSSSSSSSSSSSSSSSSSSSSSSSSSSSSSGGGGGGGGG",
"GGGGGGGGGSSSSSSSSSSSSSSS+     DSSSSSSSSSSSSSSSSSSSSSSSSSSSSSSSSSSSSSSSSSSSSSSSSSSSSSSSSSSSSSSSSSSSSSSSSSSSSSSSSSSSSSSSSGGGGGGGGG",
"GGGGGGGGGGSSSSSSSSSSSSSSV.   7SSSSSSSSSSSSSSSSSSSSSSSSSSSSSSSSSSSSSSSSSSSSSSSSSSSSSSSSSSSSSSSSSSSSSSSSSSSSSSSSSSSSSSSSGGGGGGGGGG",
"GGGGGGGGGGGSSSSSSSSSSSSSSn   BSSSSSSSSSSSSSSSSSSSSSSSSSSSSSSSSSSSSSSSSSSSSSSSSSSSSSSSSSSSSSSSSSSSSSSSSSSSSSSSSSSSSSSSGGGGGGGGGGG",
"GGGGGGGGGGGSSSSSSSSSSSSSSSb 1FDDDDDDDDDDDDDDDDDDDDDDDDDDDDDDDDDDDDDDDDDDDDDDDDDDDDDDDDDDDDDDDDDDDDDDSSSSSSSSSSSSSSSSSGGGGGGGGGGG",
"GGGGGGGGGGGGSSSSSSSSSSSSSSSbO&&&&&&&&&&&%%&&&&&&&&&&%&%&&&&&&&&&%&&%&&&&%&&%&&&&%&&%&&&&&%&&&&&&&&&&NSSSSSSSSSSSSSSSGGGGGGGGGGGG",
"GGGGGGGGGGGGGSSSSSSSSSSSSSSSn.                                                                    XMSSSSSSSSSSSSSSSGGGGGGGGGGGGG",
"GGGGGGGGGGGGGGSSSSSSSSSSSSSSSVO                                                                  +CSSSSSSSSSSSSSSSGGGGGGGGGGGGGG",
"GGGGGGGGGGGGGGSSSSSSSSSSSSSSSSS=.                                                               >SSSSSSSSSSSSSSSSSGGGGGGGGGGGGGG",
"GGGGGGGGGGGGGGGSSSSSSSSSSSSSSSSDw                                                              yDSSSSSSSSSSSSSSSSGGGGGGGGGGGGGGG",
"GGGGGGGGGGGGGGGGSSSSSSSSSSSSSSSSSxX                                                          ocSSSSSSSSSSSSSSSSSGGGGGGGGGGGGGGGG",
"GGGGGGGGGGGGGGGGGSSSSSSSSSSSSSSSSSS2                                                        4DSSSSSSSSSSSSSSSSSGGGGGGGGGGGGGGGGG",
"GGGGGGGGGGGGGGGGGGSSSSSSSSSSSSSSSSSDzO                                                    +vSSSSSSSSSSSSSSSSSSGGGGGGGGGGGGGGGGGG",
"GGGGGGGGGGGGGGGGGGGSSSSSSSSSSSSSSSSSSDi                                                  aDSSSSSSSSSSSSSSSSSSGGGGGGGGGGGGGGGGGGG",
"GGGGGGGGGGGGGGGGGGGGSSSSSSSSSSSSSSSSSSSDw                                              eDSSSSSSSSSSSSSSSSSSSGGGGGGGGGGGGGGGGGGGG",
"GGGGGGGGGGGGGGGGGGGGGSSSSSSSSSSSSSSSSSSSSDu.                                        XiDSSSSSSSSSSSSSSSSSSSSGGGGGGGGGGGGGGGGGGGGG",
"GGGGGGGGGGGGGGGGGGGGGGSSSSSSSSSSSSSSSSSSSSSDg:                                    <jFSSSSSSSSSSSSSSSSSSSSSGGGGGGGGGGGGGGGGGGGGGG",
"GGGGGGGGGGGGGGGGGGGGGGGSSSSSSSSSSSSSSSSSSSSSSDSi;                              ;pSSSSSSSSSSSSSSSSSSSSSSSSGGGGGGGGGGGGGGGGGGGGGGG",
"GGGGGGGGGGGGGGGGGGGGGGGGGSSSSSSSSSSSSSSSSSSSSSSSDDg8#                      &8hDDSSSSSSSSSSSSSSSSSSSSSSSGGGGGGGGGGGGGGGGGGGGGGGGG",
"GGGGGGGGGGGGGGGGGGGGGGGGGGSSSSSSSSSSSSSSSSSSSSSSSSSSDDza0<&X        X&<qaxDDSSSSSSSSSSSSSSSSSSSSSSSSSSGGGGGGGGGGGGGGGGGGGGGGGGGG",
"GGGGGGGGGGGGGGGGGGGGGGGGGGGSSSSSSSSSSSSSSSSSSSSSSSSSSSSSSSDFDFSSSSFFFDSSSSSSSSSSSSSSSSSSSSSSSSSSSSSSSGGGGGGGGGGGGGGGGGGGGGGGGGGG",
"GGGGGGGGGGGGGGGGGGGGGGGGGGGGGSSSSSSSSSSSSSSSSSSSSSSSSSSSSSSSSSSSSSSSSSSSSSSSSSSSSSSSSSSSSSSSSSSSSSSGGGGGGGGGGGGGGGGGGGGGGGGGGGGG",
"GGGGGGGGGGGGGGGGGGGGGGGGGGGGGGSSSSSSSSSSSSSSSSSSSSSSSSSSSSSSSSSSSSSSSSSSSSSSSSSSSSSSSSSSSSSSSSSSSGGGGGGGGGGGGGGGGGGGGGGGGGGGGGGG",
"GGGGGGGGGGGGGGGGGGGGGGGGGGGGGGGGSSSSSSSSSSSSSSSSSSSSSSSSSSSSSSSSSSSSSSSSSSSSSSSSSSSSSSSSSSSSSSSSGGGGGGGGGGGGGGGGGGGGGGGGGGGGGGGG",
"GGGGGGGGGGGGGGGGGGGGGGGGGGGGGGGGGGSSSSSSSSSSSSSSSSSSSSSSSSSSSSSSSSSSSSSSSSSSSSSSSSSSSSSSSSSSSSGGGGGGGGGGGGGGGGGGGGGGGGGGGGGGGGGG",
"GGGGGGGGGGGGGGGGGGGGGGGGGGGGGGGGGGGGSSSSSSSSSSSSSSSSSSSSSSSSSSSSSSSSSSSSSSSSSSSSSSSSSSSSSSSSGGGGGGGGGGGGGGGGGGGGGGGGGGGGGGGGGGGG",
"GGGGGGGGGGGGGGGGGGGGGGGGGGGGGGGGGGGGGGSSSSSSSSSSSSSSSSSSSSSSSSSSSSSSSSSSSSSSSSSSSSSSSSSSSSGGGGGGGGGGGGGGGGGGGGGGGGGGGGGGGGGGGGGG",
"GGGGGGGGGGGGGGGGGGGGGGGGGGGGGGGGGGGGGGGGSSSSSSSSSSSSSSSSSSSSSSSSSSSSSSSSSSSSSSSSSSSSSSSSGGGGGGGGGGGGGGGGGGGGGGGGGGGGGGGGGGGGGGGG",
"GGGGGGGGGGGGGGGGGGGGGGGGGGGGGGGGGGGGGGGGGGGSSSSSSSSSSSSSSSSSSSSSSSSSSSSSSSSSSSSSSSSSSGGGGGGGGGGGGGGGGGGGGGGGGGGGGGGGGGGGGGGGGGGG",
"GGGGGGGGGGGGGGGGGGGGGGGGGGGGGGGGGGGGGGGGGGGGGGSSSSSSSSSSSSSSSSSSSSSSSSSSSSSSSSSSSSGGGGGGGGGGGGGGGGGGGGGGGGGGGGGGGGGGGGGGGGGGGGGG",
"GGGGGGGGGGGGGGGGGGGGGGGGGGGGGGGGGGGGGGGGGGGGGGGGGGSSSSSSSSSSSSSSSSSSSSSSSSSSSSGGGGGGGGGGGGGGGGGGGGGGGGGGGGGGGGGGGGGGGGGGGGGGGGGG",
"GGGGGGGGGGGGGGGGGGGGGGGGGGGGGGGGGGGGGGGGGGGGGGGGGGGGGGGGSSSSSSSSSSSSSSSSGGGGGGGGGGGGGGGGGGGGGGGGGGGGGGGGGGGGGGGGGGGGGGGGGGGGGGGG"
};
