/* XPM */
static char *_3258_d4d19fb5f414b7bd983f1823d7169d6399357390163d05d62195f857531fd7f5[] = {
/* columns rows colors chars-per-pixel */
"64 64 233 2 ",
"   c black",
".  c #010000",
"X  c #010100",
"o  c #030100",
"O  c #040301",
"+  c #050401",
"@  c #070601",
"#  c #070602",
"$  c #0C0A03",
"%  c #0D0A03",
"&  c #0D0B03",
"*  c #0E0B03",
"=  c #100C03",
"-  c #100D03",
";  c #100C04",
":  c #100D04",
">  c #110D04",
",  c #130E04",
"<  c #120F04",
"1  c #130F04",
"2  c #140F04",
"3  c #141004",
"4  c #151005",
"5  c #151105",
"6  c #161105",
"7  c #171205",
"8  c #181205",
"9  c #181305",
"0  c #1A1406",
"q  c #1B1506",
"w  c #1C1606",
"e  c #1F1907",
"r  c #221A07",
"t  c #231B08",
"y  c #231C08",
"u  c #261E09",
"i  c #281F08",
"p  c #281F09",
"a  c #2B230A",
"s  c #30260B",
"d  c #31260B",
"f  c #31270B",
"g  c #342A0C",
"h  c #342B0C",
"j  c #362B0C",
"k  c #3B2F0D",
"l  c #3D300D",
"z  c #41340F",
"x  c #43350F",
"c  c #43360F",
"v  c #44360F",
"b  c #483910",
"n  c #4A3A11",
"m  c #4C3C11",
"M  c #4C3D11",
"N  c #4D3D11",
"B  c #4E3F12",
"V  c #4F4012",
"C  c #4F4313",
"Z  c #504012",
"A  c #504112",
"S  c #524112",
"D  c #514313",
"F  c #524313",
"G  c #534313",
"H  c #544313",
"J  c #544413",
"K  c #554413",
"L  c #544513",
"P  c #554513",
"I  c #564513",
"U  c #564514",
"Y  c #584614",
"T  c #594714",
"R  c #594814",
"E  c #5E4C15",
"W  c #5F4C15",
"Q  c #5E4D16",
"!  c #5F4D16",
"~  c #5E4E16",
"^  c #614D16",
"/  c #614E16",
"(  c #614F16",
")  c #614F17",
"_  c #624E16",
"`  c #624F16",
"'  c #605016",
"]  c #635217",
"[  c #675117",
"{  c #655418",
"}  c #695719",
"|  c #705C1A",
" . c #705E1A",
".. c #735F1B",
"X. c #75621C",
"o. c #77631C",
"O. c #7B661C",
"+. c #7B661D",
"@. c #7D681D",
"#. c #7E681D",
"$. c #7F6E1F",
"%. c #826B1E",
"&. c #806F1F",
"*. c #866D1F",
"=. c #856F1F",
"-. c #876E1F",
";. c #866F1F",
":. c #877120",
">. c #887120",
",. c #897120",
"<. c #887220",
"1. c #897320",
"2. c #8D7220",
"3. c #8E7822",
"4. c #967922",
"5. c #977C23",
"6. c #977D23",
"7. c #967D24",
"8. c #997B23",
"9. c #9A7B23",
"0. c #987C22",
"q. c #9A7D23",
"w. c #9C7E23",
"e. c #987D24",
"r. c #9D7F24",
"t. c #9B8024",
"y. c #9E8225",
"u. c #9F8325",
"i. c #A08124",
"p. c #A08225",
"a. c #A18225",
"s. c #A28425",
"d. c #A38425",
"f. c #A28726",
"g. c #A48625",
"h. c #A48526",
"j. c #A58927",
"k. c #A78826",
"l. c #AD8D28",
"z. c #AF8D28",
"x. c #B29029",
"c. c #B29229",
"v. c #B59029",
"b. c #B7922A",
"n. c #B8952A",
"m. c #BF992B",
"M. c #BE9A2B",
"N. c #C09A2C",
"B. c #C09B2C",
"V. c #C09C2C",
"C. c #C19C2C",
"Z. c #C19D2C",
"A. c #C29C2C",
"S. c #C39F2C",
"D. c #C49D2C",
"F. c #C49E2C",
"G. c #C59E2D",
"H. c #C69F2D",
"J. c #C79F2D",
"K. c #C5A02D",
"L. c #C7A42F",
"P. c #C8A12E",
"I. c #CAA22E",
"U. c #CBA22E",
"Y. c #CAA42E",
"T. c #C9A72F",
"R. c #CDA42E",
"E. c #CFA42E",
"W. c #CFA52E",
"Q. c #D1A62F",
"!. c #D1A72F",
"~. c #D3A930",
"^. c #DCAE31",
"/. c #DDB031",
"(. c #DDB333",
"). c #DDB433",
"_. c #DDB533",
"`. c #DFB533",
"'. c #DFB633",
"]. c #E0B232",
"[. c #E2B333",
"{. c #E1B432",
"}. c #E4B533",
"|. c #E0B734",
" X c #E7B734",
".X c #E6BE36",
"XX c #E8B934",
"oX c #EEBE35",
"OX c #EFBE36",
"+X c #F3C136",
"@X c #F2C237",
"#X c #F6C337",
"$X c #F5C538",
"%X c #F7C738",
"&X c #F9C939",
"*X c #FACB39",
"=X c #FBCB39",
"-X c #FBCB3A",
";X c #FEC939",
":X c #FFC939",
">X c #FFCA39",
",X c #FFCB39",
"<X c #FFCC39",
"1X c #FCCC3A",
"2X c #FFCC3A",
"3X c #FFCD3A",
"4X c #FFCE3A",
"5X c #FFCF3A",
"6X c #FFCF3B",
"7X c #FFD03B",
"8X c #FFD13B",
"9X c #FFD23B",
"0X c #FFD33B",
"qX c #FFD43B",
"wX c #FFD33C",
"eX c #FFD53C",
"rX c #FFD63C",
"tX c #FFD73C",
"yX c #FFD73D",
"uX c #FFD83D",
"iX c #FFD93D",
"pX c #FFDA3D",
"aX c #FFD93E",
"sX c #FFDA3E",
"dX c #FFDB3E",
"fX c #FFDC3E",
"gX c #FFDD3E",
"hX c #FFDE3E",
"jX c #FFDE3F",
"kX c #FFDF3F",
"lX c #FFE03F",
"zX c #FFE240",
"xX c None",
/* pixels */
"xXxXxXxXxXxXxXxXxXxXxXxXxXxXxXxXxXxXxXxXxXxXxXxXxXxX>X>X>X>X>X>X>X>X>X>X>X>XxXxXxXxXxXxXxXxXxXxXxXxXxXxXxXxXxXxXxXxXxXxXxXxXxXxX",
"xXxXxXxXxXxXxXxXxXxXxXxXxXxXxXxXxXxXxXxXxXxX>X>X>X>X>X>X>X>X>X>X>X>X>X>X>X>X>X>X>X>XxXxXxXxXxXxXxXxXxXxXxXxXxXxXxXxXxXxXxXxXxXxX",
"xXxXxXxXxXxXxXxXxXxXxXxXxXxXxXxXxXxXxXxX>X>X>X>X>X>X>X>X>X>X>X>X>X>X>X>X>X>X>X>X>X>X>X>XxXxXxXxXxXxXxXxXxXxXxXxXxXxXxXxXxXxXxXxX",
"xXxXxXxXxXxXxXxXxXxXxXxXxXxXxXxXxX>X>X>X>X>X>X>X>X>X>X>X>X>X>X>X>X>X>X>X>X>X>X>X>X>X>X>X>X>X>XxXxXxXxXxXxXxXxXxXxXxXxXxXxXxXxXxX",
"xXxXxXxXxXxXxXxXxXxXxXxXxXxXxXxX>X>X>X>X>X>X>X>X>X>X>X>X>X>X>X>X>X>X>X>X>X>X>X>X>X>X>X>X>X>X>X>XxXxXxXxXxXxXxXxXxXxXxXxXxXxXxXxX",
"xXxXxXxXxXxXxXxXxXxXxXxXxXxX>X>X>X>X>X>X>X>X>X>X>X>X:X3X0XgXkXrXrXkXfX0X4X:X>X>X>X>X>X>X>X>X>X>X>X>XxXxXxXxXxXxXxXxXxXxXxXxXxXxX",
"xXxXxXxXxXxXxXxXxXxXxXxXxX>X>X>X>X>X>X>X>X>X>X2XfXR.:.F u             u G >.E.fX2X>X>X>X>X>X>X>X>X>X>XxXxXxXxXxXxXxXxXxXxXxXxXxX",
"xXxXxXxXxXxXxXxXxXxXxX>X>X>X>X>X>X>X>X>X:XsXA.^                                 / D.pX:X>X>X>X>X>X>X>X>X>XxXxXxXxXxXxXxXxXxXxXxX",
"xXxXxXxXxXxXxXxXxXxX>X>X>X>X>X>X>X>X:XuXa.4                                         7 d.iX:X>X>X>X>X>X>X>X>XxXxXxXxXxXxXxXxXxXxX",
"xXxXxXxXxXxXxXxXxX>X>X>X>X>X>X>X>X8XC.3                                                 6 S.7X>X>X>X>X>X>X>X>XxXxXxXxXxXxXxXxXxX",
"xXxXxXxXxXxXxXxX>X>X>X>X>X>X>X;X6XV                                                         D 7X:X>X>X>X>X>X>X>XxXxXxXxXxXxXxXxX",
"xXxXxXxXxXxXxX>X>X>X>X>X>X>X:X).&                                                             = '.:X>X>X>X>X>X>X>XxXxXxXxXxXxXxX",
"xXxXxXxXxXxXxX>X>X>X>X>X>X>Xm.                                                                    A.,X>X>X>X>X>X>XxXxXxXxXxXxXxX",
"xXxXxXxXxXxX>X>X>X>X>X>X>X2X,.e.e.e.e.e.e.e.e.e.e.e.e.e.e.e.e.e.e.e.e.e.e.e.e.e.e.e.e.e.e.e.e.e.e.~ b.,X>X>X>X>X>X>XxXxXxXxXxXxX",
"xXxXxXxXxX>X>X>X>X>X>X>X>X>X:X>X>X>X>X>X>X>X>X>X>X>X>X>X>X>X>X>X>X>X>X>X>X>X>X>X>X>X>X>X>X>X>X>X4Xm   G.:X>X>X>X>X>X>XxXxXxXxXxX",
"xXxXxXxXxX>X>X>X>X>X>X>X>X>X>X>X>X>X>X>X>X>X>X>X>X>X>X>X>X>X>X>X>X>X>X>X>X>X>X>X>X>X>X>X>X>X>X>XOX      `.:X>X>X>X>X>XxXxXxXxXxX",
"xXxXxXxX>X>X>X>X>X>X>X>X>X>X>X>X>X>X>X>X>X>X>X>X>X>X>X>X>X>X>X>X>X>X>X>X>X>X>X>X>X>X>X>X>X>X>X,X{       : 7X>X>X>X>X>X>XxXxXxXxX",
"xXxXxX>X>X>X>X>X>X>X:X:X:X:X:X:X:X:X:X:X:X:X:X:X:X:X:X:X:X:X:X:X:X:X:X:X:X:X:X:X:X>X>X>X>X>X>X5X          F 7X>X>X>X>X>X>XxXxXxX",
"xXxXxX>X>X>X>X>X:XL.$.&.&.&.&.&.&.&.&.&.&.&.&.&.&.&.&.&.&.&.&.&.&.&.&.&.&.&.&.&.j.2X>X>X>X>X>X-.            S.:X>X>X>X>X>XxXxXxX",
"xXxXxX>X>X>X>X>XuX1                                                             c.:X>X>X>X>XuX+             6 iX>X>X>X>X>XxXxXxX",
"xXxX>X>X>X>X>X:Xi.                                                            - pX>X>X>X>X:Xu.                d.:X>X>X>X>X>XxXxX",
"xXxX>X>X>X>X>XsX,                                                             9.:X>X>X>X>XpXw                 7 pX>X>X>X>X>XxXxX",
"xX>X>X>X>X>X>Xm.                                                              rX>X>X>X>X>XB.                    H.>X>X>X>X>X>XxX",
"xX>X>X>X>X>X2XW                                                             o.>X>X>X>X>X8Xv                     _ 2X>X>X>X>X>XxX",
"xX>X>X>X>X>XdX                                    < T U U U U I s           &X>X>X>X>X>XXX                        fX>X>X>X>X>XxX",
"xX>X>X>X>X>XI.                                    w.3X4X4X4X4XjX7         Q 2X>X>X>X>X<X(                         Q.>X>X>X>X>XxX",
">X>X>X>X>X:X=.                                  . yX>X>X>X>X:Xn.          {.>X,X9XiX#X1X                          <.:X>X>X>X>X>X",
">X>X>X>X>X4XZ                                   +.>X>X>X>X>X9Xl         M $Xk.| a   yX@.                          J 3X>X>X>X>X>X",
">X>X>X>X>XqXt                                   =X>X>X>X>X:X[.                    O.yXX                           i 0X>X>X>X>X>X",
">X>X>X>X>XgX                                  ) <X>X5XjX}.t.k                 g ..+Xr.                              fX>X>X>X>X>X",
">X>X>X>X>XhX                                   X!.#.z                 b 7..X9Xx.z.dX3                               jX>X>X>X>X>X",
">X>X>X>X>XwX                                x jX                      q.N o     H.n.                                uX>X>X>X>X>X",
">X>X>X>X>XwX                                M.0.  e [ y.-X@                   ; zXk                                 uX>X>X>X>X>X",
">X>X>X>X>XhX                              0 dX(.fXY.*.c   X           , T 3.~.tX].                                  jX>X>X>X>X>X",
">X>X>X>X>XgX                              p./.5                   C 2XuX3X:X>X2XE                                   fX>X>X>X>X>X",
">X>X>X>X>XqXy                           O pX!       q h           XX>X>X>X>X>X&X                                  p 0X>X>X>X>X>X",
">X>X>X>X>X4XA                           *.*Xf %.m.9XlXj         x 8X>X>X>X>X>XX.                                  P 3X>X>X>X>X>X",
">X>X>X>X>X:X;.                          5X2X7X:X>X>X^.          M.>X>X>X>X>XeX                                    1.:X>X>X>X>X>X",
"xX>X>X>X>X>XU.                        ] ,X>X>X>X>X3XR         w gX4X4X4X4X3X8.                                    !.>X>X>X>X>XxX",
"xX>X>X>X>X>XdX                        oX>X>X>X>X>X%X          d H K K K K Y :                                     fX>X>X>X>X>XxX",
"xX>X>X>X>X>X2XW                     n 7X>X>X>X>X>X .                                                            ` 2X>X>X>X>X>XxX",
"xX>X>X>X>X>X>XN.                    P.>X>X>X>X>XeX                                                              J.>X>X>X>X>X>XxX",
"xXxX>X>X>X>X>XsX1                 r uX>X>X>X>X>X4.                                                            8 pX>X>X>X>X>XxXxX",
"xXxX>X>X>X>X>X:Xa.                g.:X>X>X>X>XpX$                                                             d.:X>X>X>X>X>XxXxX",
"xXxXxX>X>X>X>X>XiX2             # aX>X>X>X>X:Xl.                                                            7 iX>X>X>X>X>XxXxXxX",
"xXxXxX>X>X>X>X>X:XV.            2.>X>X>X>X>X2Xf.&.&.&.&.&.&.&.&.&.&.&.&.&.&.&.&.&.&.&.&.&.&.&.&.&.&.&.&.&.$.T.:X>X>X>X>X>XxXxXxX",
"xXxXxX>X>X>X>X>X>X8XB           9X>X>X>X>X>X>X:X:X:X:X:X:X:X:X:X:X:X:X:X:X:X:X:X:X:X:X:X:X:X:X:X:X:X:X:X:X:X>X>X>X>X>X>X>XxXxXxX",
"xXxXxXxX>X>X>X>X>X>X6X%       } ,X>X>X>X>X>X>X>X>X>X>X>X>X>X>X>X>X>X>X>X>X>X>X>X>X>X>X>X>X>X>X>X>X>X>X>X>X>X>X>X>X>X>X>XxXxXxXxX",
"xXxXxXxXxX>X>X>X>X>X;X).      @X>X>X>X>X>X>X>X>X>X>X>X>X>X>X>X>X>X>X>X>X>X>X>X>X>X>X>X>X>X>X>X>X>X>X>X>X>X>X>X>X>X>X>XxXxXxXxXxX",
"xXxXxXxXxX>X>X>X>X>X>X:XC.  S 3X:X:X:X:X:X:X:X:X:X:X:X:X:X:X:X:X:X:X:X:X:X:X:X:X:X:X:X:X:X:X:X:X:X:X>X>X>X>X>X>X>X>X>XxXxXxXxXxX",
"xXxXxXxXxXxX>X>X>X>X>X>X,Xv.' 5.6.6.6.6.6.6.6.6.6.6.6.6.6.6.6.6.6.6.6.6.6.6.6.6.6.6.6.6.6.6.6.6.6.>.2X>X>X>X>X>X>X>XxXxXxXxXxXxX",
"xXxXxXxXxXxXxX>X>X>X>X>X>X,XB.                                                                    F.>X>X>X>X>X>X>XxXxXxXxXxXxXxX",
"xXxXxXxXxXxXxX>X>X>X>X>X>X>X:X_.*                                                             > |.:X>X>X>X>X>X>X>XxXxXxXxXxXxXxX",
"xXxXxXxXxXxXxXxX>X>X>X>X>X>X>X:X7XA                                                         L 7X:X>X>X>X>X>X>X>XxXxXxXxXxXxXxXxX",
"xXxXxXxXxXxXxXxXxX>X>X>X>X>X>X>X>X8XZ.4                                                 7 K.7X>X>X>X>X>X>X>X>XxXxXxXxXxXxXxXxXxX",
"xXxXxXxXxXxXxXxXxXxX>X>X>X>X>X>X>X>X:XiXs.6                                         9 h.iX:X>X>X>X>X>X>X>X>XxXxXxXxXxXxXxXxXxXxX",
"xXxXxXxXxXxXxXxXxXxXxX>X>X>X>X>X>X>X>X>X:XpXD._                                 ` H.pX:X>X>X>X>X>X>X>X>X>XxXxXxXxXxXxXxXxXxXxXxX",
"xXxXxXxXxXxXxXxXxXxXxXxXxX>X>X>X>X>X>X>X>X>X>X2XfXW.>.K i             p P 1.Q.fX2X>X>X>X>X>X>X>X>X>X>XxXxXxXxXxXxXxXxXxXxXxXxXxX",
"xXxXxXxXxXxXxXxXxXxXxXxXxXxX>X>X>X>X>X>X>X>X>X>X>X>X:X4X0XfXkXuXuXkXfX0X4X:X>X>X>X>X>X>X>X>X>X>X>X>XxXxXxXxXxXxXxXxXxXxXxXxXxXxX",
"xXxXxXxXxXxXxXxXxXxXxXxXxXxXxXxX>X>X>X>X>X>X>X>X>X>X>X>X>X>X>X>X>X>X>X>X>X>X>X>X>X>X>X>X>X>X>X>XxXxXxXxXxXxXxXxXxXxXxXxXxXxXxXxX",
"xXxXxXxXxXxXxXxXxXxXxXxXxXxXxXxXxX>X>X>X>X>X>X>X>X>X>X>X>X>X>X>X>X>X>X>X>X>X>X>X>X>X>X>X>X>X>XxXxXxXxXxXxXxXxXxXxXxXxXxXxXxXxXxX",
"xXxXxXxXxXxXxXxXxXxXxXxXxXxXxXxXxXxXxXxX>X>X>X>X>X>X>X>X>X>X>X>X>X>X>X>X>X>X>X>X>X>X>X>XxXxXxXxXxXxXxXxXxXxXxXxXxXxXxXxXxXxXxXxX",
"xXxXxXxXxXxXxXxXxXxXxXxXxXxXxXxXxXxXxXxXxXxX>X>X>X>X>X>X>X>X>X>X>X>X>X>X>X>X>X>X>X>XxXxXxXxXxXxXxXxXxXxXxXxXxXxXxXxXxXxXxXxXxXxX",
"xXxXxXxXxXxXxXxXxXxXxXxXxXxXxXxXxXxXxXxXxXxXxXxXxXxX>X>X>X>X>X>X>X>X>X>X>X>XxXxXxXxXxXxXxXxXxXxXxXxXxXxXxXxXxXxXxXxXxXxXxXxXxXxX"
};
