/* XPM */
static char *_4297_c632803956b68b97d1ce928faacd5cd7a92cb02e53d7eb16e213dc7c1ea9d559[] = {
/* columns rows colors chars-per-pixel */
"32 32 134 2 ",
"   c black",
".  c #040401",
"X  c #060501",
"o  c #060502",
"O  c #070702",
"+  c #080702",
"@  c #090702",
"#  c #0B0802",
"$  c #0D0903",
"%  c #1A1506",
"&  c #1D1606",
"*  c #1C1706",
"=  c #1D1707",
"-  c #1F1807",
";  c #201907",
":  c #201A07",
">  c #211A07",
",  c #211B08",
"<  c #221B08",
"1  c #231C08",
"2  c #251E08",
"3  c #2B240A",
"4  c #2C250B",
"5  c #2D250B",
"6  c #2D260B",
"7  c #2E270B",
"8  c #2F280B",
"9  c #312C0C",
"0  c #312D0C",
"q  c #342F0D",
"w  c #352F0D",
"e  c #38320E",
"r  c #40330E",
"t  c #42340F",
"y  c #463810",
"u  c #463910",
"i  c #453A10",
"p  c #463A11",
"a  c #483810",
"s  c #4A3C11",
"d  c #4D3E11",
"f  c #4D3E12",
"g  c #4D3F12",
"h  c #4E3F12",
"j  c #4E4012",
"k  c #4F4012",
"l  c #4F4112",
"z  c #504112",
"x  c #5C4C15",
"c  c #5C4C16",
"v  c #615017",
"b  c #625117",
"n  c #695719",
"m  c #6C5C1A",
"M  c #705E1B",
"N  c #705F1B",
"B  c #715F1B",
"V  c #735E1B",
"C  c #72601B",
"Z  c #79621B",
"A  c #7D6A1E",
"S  c #81691E",
"D  c #816A1E",
"F  c #867120",
"G  c #917922",
"H  c #917A22",
"J  c #997A22",
"K  c #9B7C23",
"L  c #9C7D23",
"P  c #997F24",
"I  c #9E8225",
"U  c #9F8325",
"Y  c #A08425",
"T  c #A18526",
"R  c #A68626",
"E  c #A68927",
"W  c #A98B27",
"Q  c #AF8E28",
"!  c #B08E28",
"~  c #B69329",
"^  c #B7932A",
"/  c #BA9A2B",
"(  c #BB9A2C",
")  c #BD9B2C",
"_  c #BE9B2C",
"`  c #BB9C2C",
"'  c #BD9C2C",
"]  c #BE9C2C",
"[  c #BF9D2C",
"{  c #C09D2C",
"}  c #C59E2D",
"|  c #C9A22D",
" . c #CAA22E",
".. c #CEA52E",
"X. c #CEA52F",
"o. c #D1A62F",
"O. c #D3A72F",
"+. c #D3A82F",
"@. c #D4A82F",
"#. c #D4A830",
"$. c #D4A930",
"%. c #D5A930",
"&. c #D4AB30",
"*. c #D7AD31",
"=. c #E3BB35",
"-. c #E6BE35",
";. c #EFBE36",
":. c #F4C738",
">. c #F7C738",
",. c #FAC638",
"<. c #FAC738",
"1. c #FFC939",
"2. c #FFCA39",
"3. c #FFCB39",
"4. c #FFCC39",
"5. c #FFCC3A",
"6. c #FFCD3A",
"7. c #FFCE3A",
"8. c #FFCF3A",
"9. c #FFCF3B",
"0. c #FFD13B",
"q. c #FFD23B",
"w. c #FFD73D",
"e. c #FFD83D",
"r. c #FFD93D",
"t. c #FFDA3D",
"y. c #FFDD3E",
"u. c #FFDE3E",
"i. c #FFDE3F",
"p. c #FFDF3F",
"a. c #FFE03F",
"s. c #FFE13F",
"d. c #FFE140",
"f. c None",
/* pixels */
"f.f.f.f.f.f.f.f.f.f.f.f.2.2.2.2.2.2.2.2.f.f.f.f.f.f.f.f.f.f.f.f.",
"f.f.f.f.f.f.f.f.f.2.2.2.2.2.2.2.2.2.2.2.2.2.2.f.f.f.f.f.f.f.f.f.",
"f.f.f.f.f.f.f.2.2.2.2.2.2.0.u.a.a.y.q.2.2.2.2.2.2.f.f.f.f.f.f.f.",
"f.f.f.f.f.f.2.2.2.1.r.O.N 4         5 B +.r.1.2.2.2.f.f.f.f.f.f.",
"f.f.f.f.f.2.2.2.q._ ;                     > [ 0.2.2.2.f.f.f.f.f.",
"f.f.f.f.2.2.2.0.g                             j 0.2.2.2.f.f.f.f.",
"f.f.f.2.2.2.9.v p p p p p p p p p p p p p p p p c <.2.2.2.f.f.f.",
"f.f.2.2.2.2.2.9.8.8.8.8.8.8.8.8.8.8.8.8.8.8.8.8.J = 0.2.2.2.f.f.",
"f.f.2.2.3.9.9.9.9.9.9.9.9.9.9.9.9.9.9.9.4.2.2.t.O   l 0.2.2.f.f.",
"f.2.2.1.( w e e e e e e e e e e e e e 9 *.2.1.E       [ 1.2.2.f.",
"f.2.2.r.-                             & r.2.e.<       > e.2.2.f.",
"f.2.2.o.                              Y 1.2. .          #.2.2.f.",
"2.2.2.M                 1 ^ ! ` #   X r.1.8.d           C 2.2.2.",
"2.2.q.3                 T 1.1.}     L ..A :.            6 0.2.2.",
"2.2.u.                o y.i.;.t         Z n               u.2.2.",
"2.2.p.                P y         r D V =.                a.2.2.",
"2.2.p.                -.F S s       8 V H                 a.2.2.",
"2.2.u.              m a   @     u d.0.r.X                 u.2.2.",
"2.2.q.3             >.R 6.G     | 1.1.U                 7 0.2.2.",
"2.2.2.M           k 7.2.r..   $ / Q ~ ,                 C 2.2.2.",
"f.2.2.o.          X.2.1.I                               %.2.2.f.",
"f.2.2.r.-       2 w.2.t.%                             > e.2.2.f.",
"f.2.2.1.)       W 1.2.&.0 e e e e e e e e e e e e e q ' 1.2.2.f.",
"f.f.2.2.q.f   + t.2.2.5.9.9.9.9.9.9.9.9.9.9.9.9.9.9.9.3.2.2.f.f.",
"f.f.2.2.2.0.* K 7.7.7.7.7.7.7.7.7.7.7.7.7.7.7.7.9.2.2.2.2.2.f.f.",
"f.f.f.2.2.2.,.x i i i i i i i i i i i i i i i i b 9.2.2.2.f.f.f.",
"f.f.f.f.2.2.2.0.h                             z q.2.2.2.f.f.f.f.",
"f.f.f.f.f.2.2.2.q.] :                     < { 0.2.2.2.f.f.f.f.f.",
"f.f.f.f.f.f.2.2.2.1.r.@.B 6         7 C $.e.1.2.2.2.f.f.f.f.f.f.",
"f.f.f.f.f.f.f.2.2.2.2.2.2.q.y.s.s.y.q.2.2.2.2.2.2.f.f.f.f.f.f.f.",
"f.f.f.f.f.f.f.f.f.2.2.2.2.2.2.2.2.2.2.2.2.2.2.f.f.f.f.f.f.f.f.f.",
"f.f.f.f.f.f.f.f.f.f.f.f.2.2.2.2.2.2.2.2.f.f.f.f.f.f.f.f.f.f.f.f."
};
