/* XPM */
static char *_2754_88a09ad9b77163c1be6c997dc63e18d711e694acbb5bbba68bcf3c34350f50ad[] = {
/* columns rows colors chars-per-pixel */
"16 16 61 1 ",
"  c black",
". c #010100",
"X c #020100",
"o c #0F0C03",
"O c #110E04",
"+ c #1C1806",
"@ c #1E1807",
"# c #1F1907",
"$ c #201A08",
"% c #2D250B",
"& c #3A300E",
"* c #473710",
"= c #4B4313",
"- c #6A5819",
"; c #79611B",
": c #7A641C",
"> c #7A651D",
", c #7C671D",
"< c #7E681D",
"1 c #7E691D",
"2 c #7F691D",
"3 c #7E701F",
"4 c #826B1E",
"5 c #836D1E",
"6 c #977E24",
"7 c #948124",
"8 c #9F8425",
"9 c #A38525",
"0 c #A48626",
"q c #A78626",
"w c #A68726",
"e c #A88626",
"r c #A68826",
"t c #A78826",
"y c #A78827",
"u c #A98A27",
"i c #AA8B27",
"p c #AB8B27",
"a c #AB8C27",
"s c #B1942A",
"d c #B49429",
"f c #BD9D2C",
"g c #C09E2D",
"h c #C19E2D",
"j c #D3AA31",
"k c #D3AB31",
"l c #E8BB34",
"z c #E8BC35",
"x c #EBBE36",
"c c #F8C538",
"v c #F9C538",
"b c #F8C738",
"n c #FFC939",
"m c #FFCA39",
"M c #FBCC3A",
"N c #FCCD3A",
"B c #FFD43C",
"V c #FFD53C",
"C c #FFD63D",
"Z c #FFD83D",
"A c None",
/* pixels */
"AAAAAmmnnmmAAAAA",
"AAAmmBu33iBmmAAA",
"AAmB<      1VmAA",
"Ammj0tttttyy;CmA",
"Amg8888886vM 5mA",
"mB       #Z>  Bm",
"mu    ez dx.  im",
"n3   $7*o%:   3n",
"n3   -&O=s+   3n",
"mu  Xbf lq    pm",
"mB  ,Z@       Bm",
"Am4 Nc6888888hmA",
"AmC;wrrrrrr9kmmA",
"AAmV<      2VmAA",
"AAAmmBi33aBmmAAA",
"AAAAAmmnnmmAAAAA"
};
